name rise43.5482peak65.4966fall89.1036.mot
datacolumns 19
datarows 33
range 5.59331300000000 5.64664000000000
endheader
time	ground_force1_vx	ground_force1_vy	ground_force1_vz	ground_force1_px	ground_force1_py	ground_force1_pz	ground_force2_vx	ground_force2_vy	ground_force2_vz	ground_force2_px	ground_force2_py	ground_force2_pz	ground_torque1_x	ground_torque1_y	ground_torque1_z	ground_torque2_x	ground_torque2_y	ground_torque2_z	
5.59331300000000	20.83277200000000	703.55744800000002	37.66961600000000	0.18735100000000	0.00000000000000	0.09948800000000	0.00000000000000	0.00000000000000	0.00000000000000	0.00000000000000	0.00000000000000	0.00000000000000	0.00000000000000	11.94162800000000	0.00000000000000	0.00000000000000	0.00000000000000	0.00000000000000	
5.59497800000000	20.32880500000000	704.32002699999998	37.64508800000000	0.18629500000000	0.00000000000000	0.09945000000000	0.00000000000000	0.00000000000000	0.00000000000000	0.00000000000000	0.00000000000000	0.00000000000000	0.00000000000000	11.99333900000000	0.00000000000000	0.00000000000000	0.00000000000000	0.00000000000000	
5.59663800000000	19.81714500000000	705.10052599999995	37.61755000000000	0.18523900000000	0.00000000000000	0.09941200000000	0.00000000000000	0.00000000000000	0.00000000000000	0.00000000000000	0.00000000000000	0.00000000000000	0.00000000000000	12.04663500000000	0.00000000000000	0.00000000000000	0.00000000000000	0.00000000000000	
5.59830500000000	19.29798500000000	705.89840100000004	37.58701500000000	0.18418600000000	0.00000000000000	0.09937200000000	0.00000000000000	0.00000000000000	0.00000000000000	0.00000000000000	0.00000000000000	0.00000000000000	0.00000000000000	12.10151100000000	0.00000000000000	0.00000000000000	0.00000000000000	0.00000000000000	
5.59997500000000	18.77152800000000	706.71318099999996	37.55352200000000	0.18313600000000	0.00000000000000	0.09933100000000	0.00000000000000	0.00000000000000	0.00000000000000	0.00000000000000	0.00000000000000	0.00000000000000	0.00000000000000	12.15796300000000	0.00000000000000	0.00000000000000	0.00000000000000	0.00000000000000	
5.60163700000000	18.23799500000000	707.54447300000004	37.51713400000000	0.18208900000000	0.00000000000000	0.09928900000000	0.00000000000000	0.00000000000000	0.00000000000000	0.00000000000000	0.00000000000000	0.00000000000000	0.00000000000000	12.21598500000000	0.00000000000000	0.00000000000000	0.00000000000000	0.00000000000000	
5.60330400000000	17.69761700000000	708.39195299999994	37.47794000000000	0.18104600000000	0.00000000000000	0.09924600000000	0.00000000000000	0.00000000000000	0.00000000000000	0.00000000000000	0.00000000000000	0.00000000000000	0.00000000000000	12.27557300000000	0.00000000000000	0.00000000000000	0.00000000000000	0.00000000000000	
5.60497700000000	17.15063800000000	709.25536799999998	37.43605000000000	0.18000800000000	0.00000000000000	0.09920200000000	0.00000000000000	0.00000000000000	0.00000000000000	0.00000000000000	0.00000000000000	0.00000000000000	0.00000000000000	12.33671700000000	0.00000000000000	0.00000000000000	0.00000000000000	0.00000000000000	
5.60664300000000	16.59731400000000	710.13453400000003	37.39159700000000	0.17897500000000	0.00000000000000	0.09915700000000	0.00000000000000	0.00000000000000	0.00000000000000	0.00000000000000	0.00000000000000	0.00000000000000	0.00000000000000	12.39940800000000	0.00000000000000	0.00000000000000	0.00000000000000	0.00000000000000	
5.60831100000000	16.03791100000000	711.02933099999996	37.34474000000000	0.17794800000000	0.00000000000000	0.09911000000000	0.00000000000000	0.00000000000000	0.00000000000000	0.00000000000000	0.00000000000000	0.00000000000000	0.00000000000000	12.46363500000000	0.00000000000000	0.00000000000000	0.00000000000000	0.00000000000000	
5.60997500000000	15.47270800000000	711.93970200000001	37.29565800000000	0.17692700000000	0.00000000000000	0.09906300000000	0.00000000000000	0.00000000000000	0.00000000000000	0.00000000000000	0.00000000000000	0.00000000000000	0.00000000000000	12.52938300000000	0.00000000000000	0.00000000000000	0.00000000000000	0.00000000000000	
5.61163900000000	14.90198900000000	712.86564699999997	37.24454900000000	0.17591300000000	0.00000000000000	0.09901400000000	0.00000000000000	0.00000000000000	0.00000000000000	0.00000000000000	0.00000000000000	0.00000000000000	0.00000000000000	12.59663700000000	0.00000000000000	0.00000000000000	0.00000000000000	0.00000000000000	
5.61330700000000	14.32605100000000	713.80722300000002	37.19163600000000	0.17490500000000	0.00000000000000	0.09896400000000	0.00000000000000	0.00000000000000	0.00000000000000	0.00000000000000	0.00000000000000	0.00000000000000	0.00000000000000	12.66537500000000	0.00000000000000	0.00000000000000	0.00000000000000	0.00000000000000	
5.61497600000000	13.74519800000000	714.76453900000001	37.13715700000000	0.17390400000000	0.00000000000000	0.09891300000000	0.00000000000000	0.00000000000000	0.00000000000000	0.00000000000000	0.00000000000000	0.00000000000000	0.00000000000000	12.73557500000000	0.00000000000000	0.00000000000000	0.00000000000000	0.00000000000000	
5.61664700000000	13.15974000000000	715.73775000000001	37.08137200000000	0.17291000000000	0.00000000000000	0.09886100000000	0.00000000000000	0.00000000000000	0.00000000000000	0.00000000000000	0.00000000000000	0.00000000000000	0.00000000000000	12.80721200000000	0.00000000000000	0.00000000000000	0.00000000000000	0.00000000000000	
5.61830400000000	12.56999700000000	716.72705800000006	37.02455800000000	0.17192300000000	0.00000000000000	0.09880900000000	0.00000000000000	0.00000000000000	0.00000000000000	0.00000000000000	0.00000000000000	0.00000000000000	0.00000000000000	12.88025400000000	0.00000000000000	0.00000000000000	0.00000000000000	0.00000000000000	
5.61997300000000	11.97629200000000	717.73270100000002	36.96700600000000	0.17094400000000	0.00000000000000	0.09875500000000	0.00000000000000	0.00000000000000	0.00000000000000	0.00000000000000	0.00000000000000	0.00000000000000	0.00000000000000	12.95466800000000	0.00000000000000	0.00000000000000	0.00000000000000	0.00000000000000	
5.62164300000000	11.37895800000000	718.75495400000000	36.90902400000000	0.16997100000000	0.00000000000000	0.09870100000000	0.00000000000000	0.00000000000000	0.00000000000000	0.00000000000000	0.00000000000000	0.00000000000000	0.00000000000000	13.03041700000000	0.00000000000000	0.00000000000000	0.00000000000000	0.00000000000000	
5.62331000000000	10.77832900000000	719.79412200000002	36.85093600000000	0.16900500000000	0.00000000000000	0.09864500000000	0.00000000000000	0.00000000000000	0.00000000000000	0.00000000000000	0.00000000000000	0.00000000000000	0.00000000000000	13.10745900000000	0.00000000000000	0.00000000000000	0.00000000000000	0.00000000000000	
5.62497500000000	10.17474600000000	720.85053600000003	36.79307500000000	0.16804600000000	0.00000000000000	0.09858900000000	0.00000000000000	0.00000000000000	0.00000000000000	0.00000000000000	0.00000000000000	0.00000000000000	0.00000000000000	13.18574900000000	0.00000000000000	0.00000000000000	0.00000000000000	0.00000000000000	
5.62664400000000	9.56855500000000	721.92454799999996	36.73578900000000	0.16709300000000	0.00000000000000	0.09853200000000	0.00000000000000	0.00000000000000	0.00000000000000	0.00000000000000	0.00000000000000	0.00000000000000	0.00000000000000	13.26523700000000	0.00000000000000	0.00000000000000	0.00000000000000	0.00000000000000	
5.62831200000000	8.96010300000000	723.01652600000000	36.67943400000000	0.16614600000000	0.00000000000000	0.09847500000000	0.00000000000000	0.00000000000000	0.00000000000000	0.00000000000000	0.00000000000000	0.00000000000000	0.00000000000000	13.34586900000000	0.00000000000000	0.00000000000000	0.00000000000000	0.00000000000000	
5.62997300000000	8.34974100000000	724.12684999999999	36.62437800000000	0.16520500000000	0.00000000000000	0.09841700000000	0.00000000000000	0.00000000000000	0.00000000000000	0.00000000000000	0.00000000000000	0.00000000000000	0.00000000000000	13.42758600000000	0.00000000000000	0.00000000000000	0.00000000000000	0.00000000000000	
5.63164500000000	7.73782300000000	725.25590799999998	36.57099200000000	0.16427000000000	0.00000000000000	0.09835900000000	0.00000000000000	0.00000000000000	0.00000000000000	0.00000000000000	0.00000000000000	0.00000000000000	0.00000000000000	13.51032700000000	0.00000000000000	0.00000000000000	0.00000000000000	0.00000000000000	
5.63330500000000	7.12470500000000	726.40408700000000	36.51965700000000	0.16333900000000	0.00000000000000	0.09830100000000	0.00000000000000	0.00000000000000	0.00000000000000	0.00000000000000	0.00000000000000	0.00000000000000	0.00000000000000	13.59402500000000	0.00000000000000	0.00000000000000	0.00000000000000	0.00000000000000	
5.63497600000000	6.51074200000000	727.57177200000001	36.47075800000000	0.16241300000000	0.00000000000000	0.09824200000000	0.00000000000000	0.00000000000000	0.00000000000000	0.00000000000000	0.00000000000000	0.00000000000000	0.00000000000000	13.67861000000000	0.00000000000000	0.00000000000000	0.00000000000000	0.00000000000000	
5.63664500000000	5.89629200000000	728.75933999999995	36.42468300000000	0.16149000000000	0.00000000000000	0.09818300000000	0.00000000000000	0.00000000000000	0.00000000000000	0.00000000000000	0.00000000000000	0.00000000000000	0.00000000000000	13.76400600000000	0.00000000000000	0.00000000000000	0.00000000000000	0.00000000000000	
5.63832100000000	5.28171300000000	729.96715600000005	36.38182100000000	0.16057100000000	0.00000000000000	0.09812300000000	0.00000000000000	0.00000000000000	0.00000000000000	0.00000000000000	0.00000000000000	0.00000000000000	0.00000000000000	13.85013600000000	0.00000000000000	0.00000000000000	0.00000000000000	0.00000000000000	
5.63997500000000	4.66736100000000	731.19556599999999	36.34256500000000	0.15965500000000	0.00000000000000	0.09806400000000	0.00000000000000	0.00000000000000	0.00000000000000	0.00000000000000	0.00000000000000	0.00000000000000	0.00000000000000	13.93691600000000	0.00000000000000	0.00000000000000	0.00000000000000	0.00000000000000	
5.64164400000000	4.05359000000000	732.44489499999997	36.30730300000000	0.15874200000000	0.00000000000000	0.09800500000000	0.00000000000000	0.00000000000000	0.00000000000000	0.00000000000000	0.00000000000000	0.00000000000000	0.00000000000000	14.02426000000000	0.00000000000000	0.00000000000000	0.00000000000000	0.00000000000000	
5.64330800000000	3.44075600000000	733.71543999999994	36.27642300000000	0.15783000000000	0.00000000000000	0.09794600000000	0.00000000000000	0.00000000000000	0.00000000000000	0.00000000000000	0.00000000000000	0.00000000000000	0.00000000000000	14.11207900000000	0.00000000000000	0.00000000000000	0.00000000000000	0.00000000000000	
5.64497100000000	2.82920800000000	735.00746700000002	36.25030800000000	0.15691900000000	0.00000000000000	0.09788700000000	0.00000000000000	0.00000000000000	0.00000000000000	0.00000000000000	0.00000000000000	0.00000000000000	0.00000000000000	14.20027700000000	0.00000000000000	0.00000000000000	0.00000000000000	0.00000000000000	
5.64664000000000	2.21929400000000	736.32120799999996	36.22933900000000	0.15600900000000	0.00000000000000	0.09782800000000	0.00000000000000	0.00000000000000	0.00000000000000	0.00000000000000	0.00000000000000	0.00000000000000	0.00000000000000	14.28875900000000	0.00000000000000	0.00000000000000	0.00000000000000	0.00000000000000	
